<svg width="150" height="150" viewBox="0 0 24 24" xmlns="http://www.w3.org/2000/svg">
  <defs>
    <linearGradient id="grad1" x1="0%" y1="0%" x2="100%" y2="100%">
      <stop offset="0%" style="stop-color:#ff99ff;stop-opacity:1" />
      <stop offset="50%" style="stop-color:#99f0ff;stop-opacity:1" />
      <stop offset="100%" style="stop-color:#ff99c8;stop-opacity:1" />
    </linearGradient>
  </defs>
  
  <!-- Home Icon -->
  <path d="M13.5 1.515a3 3 0 0 0-3 0L3 5.845a2 2 0 0 0-1 1.732V21a1 1 0 0 0 1 1h6a1 1 0 0 0 1-1v-6h4v6a1 1 0 0 0 1 1h6a1 1 0 0 0 1-1V7.577a2 2 0 0 0-1-1.732l-7.5-4.33z"
    fill="none" stroke="url(#grad1)" stroke-width="1.5"/>
</svg>
