<svg xmlns="http://www.w3.org/2000/svg" data-encore-id="icon" role="img" aria-hidden="true" class="e-9640-icon" viewBox="0 0 24 24">
  <defs>
    <linearGradient id="myGradient" x1="0%" y1="0%" x2="100%" y2="100%">
      <stop offset="0%" style="stop-color:#FF69B4;stop-opacity:1" />
      <stop offset="100%" style="stop-color:#00CED1;stop-opacity:1" />
    </linearGradient>
  </defs>
  <path d="M3 22a1 1 0 0 1-1-1V3a1 1 0 0 1 2 0v18a1 1 0 0 1-1 1zM15.5 2.134A1 1 0 0 0 14 3v18a1 1 0 0 0 1 1h6a1 1 0 0 0 1-1V6.464a1 1 0 0 0-.5-.866l-6-3.464zM9 2a1 1 0 0 0-1 1v18a1 1 0 1 0 2 0V3a1 1 0 0 0-1-1z" fill="url(#myGradient)" />
</svg>