<svg
  width="24"
  height="24"
  viewBox="0 0 24 24"
  fill="none"
  xmlns="http://www.w3.org/2000/svg"
>
  <defs>
    <linearGradient id="gradient" x1="0" y1="0" x2="24" y2="24" gradientUnits="userSpaceOnUse">
      <stop offset="0%" stop-color="#FF69B4"/>
      <stop offset="50%" stop-color="#DA70D6"/>
      <stop offset="100%" stop-color="#00CED1"/>
    </linearGradient>
    <filter id="shadow">
      <feDropShadow dx="1" dy="1" stdDeviation="2" flood-opacity="0.3" />
    </filter>
  </defs>
  <path
    fill-rule="evenodd"
    clip-rule="evenodd"
    d="M16 8C15.4477 8 15 8.44772 15 9V15C15 15.5523 15.4477 16 16 16C16.5523 16 17 15.5523 17 15V9C17 8.44772 16.5523 8 16 8ZM8 15.4641L14 12L8 8.5359V15.4641Z"
    fill="url(#gradient)"
    filter="url(#shadow)"
  />
  <path
    fill-rule="evenodd"
    clip-rule="evenodd"
    d="M19 3H5C3.89543 3 3 3.89543 3 5V19C3 20.1046 3.89543 21 5 21H19C20.1046 21 21 20.1046 21 19V5C21 3.89543 20.1046 3 19 3ZM5 1C2.79086 1 1 2.79086 1 5V19C1 21.2091 2.79086 23 5 23H19C21.2091 23 23 21.2091 23 19V5C23 2.79086 21.2091 1 19 1H5Z"
    fill="url(#gradient)"
    filter="url(#shadow)"
  />
</svg>