<svg 
  width="16"
  height="16"
  viewBox="0 0 16 16"
  fill="none"
  xmlns="http://www.w3.org/2000/svg"
  data-encore-id="icon"
  role="presentation"
  aria-label="Volume muted"
  aria-hidden="false"
  class="e-9640-icon"
  id="volume-mute-icon"
  style="--encore-icon-height: var(--encore-graphic-size-informative-smaller); --encore-icon-width: var(--encore-graphic-size-informative-smaller);"
>
  <defs>
    <linearGradient id="volume-mute-gradient" x1="0" y1="0" x2="16" y2="16" gradientUnits="userSpaceOnUse">
      <stop offset="0%" stop-color="#ff8a00"/>
      <stop offset="100%" stop-color="#ffb800"/>
    </linearGradient>
    <filter id="volume-mute-shadow">
      <feDropShadow dx="0.5" dy="0.5" stdDeviation="1" flood-opacity="0.3" flood-color="#111010"/>
    </filter>
  </defs>
  <path
    d="M9.741.85a.75.75 0 0 1 .375.65v13a.75.75 0 0 1-1.125.65l-6.925-4a3.642 3.642 0 0 1-1.33-4.967 3.639 3.639 0 0 1 1.33-1.332l6.925-4a.75.75 0 0 1 .75 0zm-6.924 5.3a2.139 2.139 0 0 0 0 3.7l5.8 3.35V2.8l-5.8 3.35zm9.153 4.29-2.5-2.5 2.5-2.5v5z"
    fill="url(#volume-mute-gradient)"
    filter="url(#volume-mute-shadow)"
  />
  <path
    d="M13.646 2.354l.708.708L2.707 14.707l-.708-.708z"
    fill="url(#volume-mute-gradient)"
    filter="url(#volume-mute-shadow)"
  />
</svg>